<svg width="346" height="64" viewBox="0 0 346 64" fill="none" xmlns="http://www.w3.org/2000/svg">
<path d="M26.9858 52.3395C41.3626 52.3395 50.5386 42.6998 50.5386 27.1636V27.0973C50.5386 11.5942 41.3295 1.95445 26.9858 1.95445C12.609 1.95445 3.3999 11.5942 3.3999 27.0973V27.1636C3.3999 42.6998 12.5428 52.3395 26.9858 52.3395ZM26.9858 42.2691C20.1949 42.2691 15.756 36.3727 15.756 27.1636V27.0973C15.756 17.9213 20.2612 12.0248 26.9858 12.0248C33.6773 12.0248 38.1494 17.9213 38.1494 27.0973V27.1636C38.1494 36.3727 33.6773 42.2691 26.9858 42.2691Z" fill="black"/>
<path d="M58.1444 51.0476H69.8711V22.7909H77.0595V14.1781H69.573V12.0248C69.573 9.17598 70.8318 7.58592 74.3763 7.58592C75.7345 7.58592 76.8276 7.71843 77.3577 7.78468V0.364389C75.867 0.132505 74.0782 0 71.7924 0C61.9208 0 58.1444 3.74327 58.1444 11.0973V14.1781H52.2479V22.7909H58.1444V51.0476Z" fill="black"/>
<path d="M84.6322 51.0476H96.3589V22.7909H103.547V14.1781H96.0608V12.0248C96.0608 9.17598 97.3196 7.58592 100.864 7.58592C102.222 7.58592 103.315 7.71843 103.845 7.78468V0.364389C102.355 0.132505 100.566 0 98.2802 0C88.4086 0 84.6322 3.74327 84.6322 11.0973V14.1781H78.7357V22.7909H84.6322V51.0476Z" fill="black"/>
<path d="M123.244 51.9089C135.07 51.9089 139.575 44.9855 140.636 40.5797L140.735 40.1822L130.002 40.2153L129.936 40.3478C129.406 41.3085 127.385 43.5611 123.476 43.5611C118.971 43.5611 116.255 40.5135 116.155 35.2464H140.967V31.8675C140.967 20.6046 133.911 13.3168 122.814 13.3168C111.683 13.3168 104.627 20.7039 104.627 32.5963V32.6294C104.627 44.588 111.683 51.9089 123.244 51.9089ZM123.079 21.6646C126.722 21.6646 129.306 24.0166 129.869 28.4224H116.288C116.851 24.0828 119.468 21.6646 123.079 21.6646Z" fill="black"/>
<path d="M144.862 51.0476H156.589V31.5362C156.589 26.4348 159.802 23.4865 165.301 23.4865C166.958 23.4865 168.647 23.7184 170.204 24.1159V14.2112C169.078 13.8137 167.653 13.6149 166.229 13.6149C161.525 13.6149 158.279 15.9669 157.219 20.0414H156.589V14.1781H144.862V51.0476Z" fill="black"/>
<path d="M187.304 51.0476H219.768V41.2754H199.461V3.24638H187.304V51.0476Z" fill="black"/>
<path d="M239.498 51.9089C251.324 51.9089 258.28 44.7536 258.28 32.6294V32.5631C258.28 20.6046 251.158 13.3168 239.498 13.3168C227.903 13.3168 220.715 20.6708 220.715 32.5631V32.6294C220.715 44.7205 227.705 51.9089 239.498 51.9089ZM239.498 42.9979C235.191 42.9979 232.74 39.1884 232.74 32.6294V32.5631C232.74 26.1698 235.257 22.2277 239.498 22.2277C243.738 22.2277 246.255 26.1698 246.255 32.5631V32.6294C246.255 39.1553 243.804 42.9979 239.498 42.9979Z" fill="black"/>
<path d="M279.004 64C290.731 64 298.151 58.4679 298.151 49.5901V14.1781H286.391V20.1739H285.927C284.105 16.0331 280.197 13.6149 275.195 13.6149C265.853 13.6149 260.255 20.8033 260.255 31.9006V31.9669C260.255 42.5673 265.886 49.5901 274.996 49.5901C280.163 49.5901 283.907 47.6025 285.795 43.793H286.424V50.352C286.424 54.0621 283.84 56.1491 279.335 56.1491C275.426 56.1491 273.306 54.9565 272.809 53.1677L272.743 52.9689H261.315V53.2008C262.077 59.5942 268.139 64 279.004 64ZM279.335 40.9441C274.863 40.9441 272.279 37.3665 272.279 31.9337V31.8675C272.279 26.4679 274.896 22.8903 279.335 22.8903C283.807 22.8903 286.491 26.4679 286.491 31.9006V31.9669C286.491 37.3665 283.84 40.9441 279.335 40.9441Z" fill="black"/>
<path d="M320.829 51.9089C332.655 51.9089 339.612 44.7536 339.612 32.6294V32.5631C339.612 20.6046 332.49 13.3168 320.829 13.3168C309.235 13.3168 302.047 20.6708 302.047 32.5631V32.6294C302.047 44.7205 309.036 51.9089 320.829 51.9089ZM320.829 42.9979C316.523 42.9979 314.072 39.1884 314.072 32.6294V32.5631C314.072 26.1698 316.589 22.2277 320.829 22.2277C325.069 22.2277 327.587 26.1698 327.587 32.5631V32.6294C327.587 39.1553 325.136 42.9979 320.829 42.9979Z" fill="black"/>
</svg>
