<svg xmlns="http://www.w3.org/2000/svg" xmlns:xlink="http://www.w3.org/1999/xlink" width="720" height="146.788" viewBox="0 0 720 146.788">
  <defs>
    <radialGradient id="radial-gradient" cx="0.5" cy="0.5" r="0.666" gradientTransform="translate(0.428 0) scale(0.627 1)" gradientUnits="objectBoundingBox">
      <stop offset="0.18" stop-color="#f2e1cf"/>
      <stop offset="0.59" stop-color="#eec474"/>
      <stop offset="1" stop-color="#b66e1b"/>
    </radialGradient>
  </defs>
  <g id="logo-bbr-wide-dark" transform="translate(447 -12015)">
    <g id="Group_183940" data-name="Group 183940" transform="translate(-173.313 12020.476)">
      <path id="Logotype" d="M277.1,103.865v30.789h-8.819v-52.6l31.97,31.97V82.841h8.819v52.994ZM128.665,82.841h9.607l13.859,31.1,13.78-31.1H175.6L152.13,135.835Zm224.771,50.71a19.793,19.793,0,0,1-6.574-4.489,20.865,20.865,0,0,1-5.984-14.646V82.841h8.9v31.576a12.261,12.261,0,0,0,.867,4.607,11.684,11.684,0,0,0,10.709,7.284,11.26,11.26,0,0,0,8.11-3.465,11.285,11.285,0,0,0,2.52-3.819,12.3,12.3,0,0,0,.866-4.607V82.841h8.9v31.576a20.732,20.732,0,0,1-1.535,7.874,21.573,21.573,0,0,1-4.371,6.772,20.672,20.672,0,0,1-6.653,4.489,20.47,20.47,0,0,1-15.749,0Zm60.121,1.1V82.841h32.757v8.9H422.454v12.52h17.953v8.9H422.454v12.678h23.859v8.819Zm-209.062,0V82.841h32.757v8.9H213.392v12.52h17.953v8.9H213.392v12.678h23.859v8.819Zm-137.17,0V82.841h32.757v8.9H76.223v12.52H94.176v8.9H76.223v12.678h23.859v8.819Zm-41.024,0L8.9,111.818v22.836H.079L0,82.841H18.977A20.65,20.65,0,0,1,26.1,84.061a17.651,17.651,0,0,1,5.866,3.5,15.305,15.305,0,0,1,3.858,5.079A14.206,14.206,0,0,1,34.1,107.487a15.176,15.176,0,0,1-6.614,4.882,21.273,21.273,0,0,1-3.268.945,14.626,14.626,0,0,1-2.716.394l15.748,20.946ZM8.9,105.676h7.717a18.06,18.06,0,0,0,7.4-1.26,7.384,7.384,0,0,0,2.992-2.284,5.424,5.424,0,0,0,1.26-3.465,5.969,5.969,0,0,0-2.2-4.567,10.138,10.138,0,0,0-7.087-2.363H8.9ZM341.064.846h11.847V34.907L377.452.846h14.6L367.931,34.379l26.446,36.07h-14.7l-18.935-25.81-19.674,27.4Zm69.549,68.916a27.42,27.42,0,0,1-8.2-4.073,19.121,19.121,0,0,1-6.982-8.885l10.578-6.03a5.479,5.479,0,0,0,1.163,3.068,9.824,9.824,0,0,0,2.327,2.221,17.1,17.1,0,0,0,4.919,2.327,20.062,20.062,0,0,0,11.53,0,17.137,17.137,0,0,0,4.919-2.327q3.49-2.642,3.491-5.606a6.043,6.043,0,0,0-1.375-3.7,11.535,11.535,0,0,0-3.7-3.068q-2.222-1.269-9.944-2.221-8.675-.952-13.117-3.068a20.965,20.965,0,0,1-8.886-7.4,18.149,18.149,0,0,1-3.174-10.261,17.072,17.072,0,0,1,2.169-8.3A21.749,21.749,0,0,1,402.415,5.5a27.469,27.469,0,0,1,8.2-4.072,32.794,32.794,0,0,1,19.146,0,27.487,27.487,0,0,1,8.2,4.072,19.745,19.745,0,0,1,7.087,8.992L434.36,20.627q-.107-2.96-3.491-5.5a17.222,17.222,0,0,0-4.919-2.327,20.049,20.049,0,0,0-11.53,0,17.188,17.188,0,0,0-4.919,2.327q-3.491,2.645-3.491,5.606a6.526,6.526,0,0,0,1.481,3.967,9.381,9.381,0,0,0,4.126,3.015,18.071,18.071,0,0,0,4.02,1.163q2.326.424,5.395.847,9.413,1.165,13.963,3.491a23.533,23.533,0,0,1,8.3,7.51,17.3,17.3,0,0,1,3.014,9.731,17.087,17.087,0,0,1-2.169,8.3,21.29,21.29,0,0,1-6.188,6.928,27.437,27.437,0,0,1-8.2,4.073,32.806,32.806,0,0,1-19.146,0ZM292.672,66.271a35.5,35.5,0,0,1-12.8-12.958,34.892,34.892,0,0,1-4.707-17.771A35.393,35.393,0,0,1,292.672,4.866,34.12,34.12,0,0,1,310.284.106a34.838,34.838,0,0,1,14.227,3.015,33.928,33.928,0,0,1,11.794,8.621l-8.779,7.933a23.718,23.718,0,0,0-7.881-5.712,22.721,22.721,0,0,0-9.361-2.01A22.465,22.465,0,0,0,298.6,15.126a23.728,23.728,0,0,0-11.583,20.415,23.32,23.32,0,0,0,3.121,11.795,23.616,23.616,0,0,0,8.515,8.674,22.613,22.613,0,0,0,21.632.9,24.3,24.3,0,0,0,8.092-6.452l9.309,7.4a34.772,34.772,0,0,1-12.165,9.731,34.452,34.452,0,0,1-15.232,3.491A33.825,33.825,0,0,1,292.672,66.271Zm-58.917,2.7a26.565,26.565,0,0,1-8.833-6.029,28.041,28.041,0,0,1-8.04-19.675V.846h11.953V43.264A16.485,16.485,0,0,0,230,49.452a15.7,15.7,0,0,0,14.386,9.785,14.959,14.959,0,0,0,5.923-1.217,14.8,14.8,0,0,0,4.972-3.438,15.126,15.126,0,0,0,3.385-5.131,16.505,16.505,0,0,0,1.164-6.188V.846h11.953V43.264a27.828,27.828,0,0,1-2.063,10.578,28.981,28.981,0,0,1-5.87,9.1,27.784,27.784,0,0,1-8.939,6.029,27.5,27.5,0,0,1-21.156,0Zm-70.5,1.481V.846h21.685q9.838,0,16.29,5.818a19.874,19.874,0,0,1,4.6,6.347,17.923,17.923,0,0,1,1.639,7.51,17.418,17.418,0,0,1-3.068,9.944,4.457,4.457,0,0,1-.846,1.163,23.416,23.416,0,0,1,6.558,5.712,19,19,0,0,1,2.327,19.887A21.022,21.022,0,0,1,207.36,64.1a23.562,23.562,0,0,1-7.933,4.707,28.142,28.142,0,0,1-9.626,1.639ZM175.2,58.6h14.6a13.583,13.583,0,0,0,9.52-3.279,8.123,8.123,0,0,0,3.067-6.135,7.288,7.288,0,0,0-1.692-4.654,9.936,9.936,0,0,0-4.019-3.068,25.549,25.549,0,0,0-10.049-1.692H175.2Zm0-30.782h9.414a25.2,25.2,0,0,0,3.755-.212,11.378,11.378,0,0,0,2.591-.74,9.364,9.364,0,0,0,3.385-2.8,6,6,0,0,0,1.163-3.544,6.634,6.634,0,0,0-2.326-5.077q-2.753-2.643-8.251-2.644H175.2Zm-66.11,42.629a33.843,33.843,0,0,1-17.507-4.707,35.048,35.048,0,0,1-12.693-12.8,34.406,34.406,0,0,1-4.708-17.612,34.408,34.408,0,0,1,4.708-17.613A35.476,35.476,0,0,1,91.587,4.866,33.562,33.562,0,0,1,109.094.106a34.76,34.76,0,0,1,14.069,2.962A33.062,33.062,0,0,1,134.8,11.53l-8.78,7.934a22.159,22.159,0,0,0-7.722-5.5,23.142,23.142,0,0,0-9.2-1.9,22.294,22.294,0,0,0-11.53,3.121,23.313,23.313,0,0,0-8.409,8.462,22.753,22.753,0,0,0-3.121,11.689,22.748,22.748,0,0,0,3.121,11.688,23.284,23.284,0,0,0,8.409,8.462,22.274,22.274,0,0,0,11.53,3.121h14.28V43.9H106.767V32.051h28.454v38.4Zm-52.042,0V.846H69v69.6Zm-56.062,0V.846H22.675q9.836,0,16.29,5.818a19.854,19.854,0,0,1,4.6,6.347,17.914,17.914,0,0,1,1.639,7.51,17.424,17.424,0,0,1-3.067,9.944,4.464,4.464,0,0,1-.847,1.163,23.409,23.409,0,0,1,6.559,5.712,18.994,18.994,0,0,1,2.327,19.887A21.022,21.022,0,0,1,45.1,64.1a23.575,23.575,0,0,1-7.933,4.707,28.148,28.148,0,0,1-9.626,1.639ZM12.942,58.6h14.6a13.58,13.58,0,0,0,9.519-3.279,8.122,8.122,0,0,0,3.068-6.135,7.291,7.291,0,0,0-1.692-4.654,9.937,9.937,0,0,0-4.02-3.068,25.545,25.545,0,0,0-10.049-1.692H12.942Zm0-30.782h9.415a25.212,25.212,0,0,0,3.755-.212,11.365,11.365,0,0,0,2.591-.74,9.367,9.367,0,0,0,3.385-2.8,6.005,6.005,0,0,0,1.164-3.544,6.635,6.635,0,0,0-2.327-5.077Q28.173,12.8,22.675,12.8H12.942Z" transform="translate(0 0)" fill="#fff"/>
    </g>
    <path id="Logo" d="M313.421,617.7a46.287,46.287,0,0,1-9.651-1.628l-.418-.125c-7.754-2.346-13.062-6.716-16.307-13.385a31.307,31.307,0,0,1-1.537-3.736,44.609,44.609,0,0,1-2.044-10.978l.059-17.788-.059-9.695.1-.1v-1.047l.132-1.257-.128-.128c.077-4.932,1.109-8.824,3.071-11.581l.185-.185.237-.465a24.778,24.778,0,0,1,4.533-6.5l.039-.04c.258-.267.486-.486.723-.706l.087-.084-.019.007.1-.081.1-.09c.246-.23.5-.445.754-.659l.034-.02.182-.154c.213-.181.436-.353.666-.525.482-.372.948-.7,1.464-1.038.253-.166.506-.326.768-.478,0,0,.357-.215.444-.269.359-.2.726-.4,1.092-.587.428-.223.841-.426,1.273-.619.456-.209.9-.4,1.348-.579.376-.152.76-.292,1.144-.422l.143-.053c.208-.083.417-.152.633-.214l.1-.03.1-.038c.275-.1.559-.187.834-.266.494-.151.947-.267,1.407-.385.5-.126,1.022-.255,1.554-.366s1.085-.223,1.643-.316c.275-.049.523-.092.771-.126.674-.112,1.267-.193,1.869-.256.916-.119,1.808-.194,2.579-.252h64.43v15.86H318.727a30.668,30.668,0,0,0-3.793.228h-1.042l-.247.239a20.537,20.537,0,0,0-8.125,3.5c-.208.166-.35.281-.492.409-3.709,3.3-5.594,8.359-5.594,15.029v17.031a24.928,24.928,0,0,0,.846,6.8c1.49,5.5,5.9,12.126,18.41,12.285h73.878V486.773h-73.84c-12.442,0-19.294,6.891-19.294,19.4v5.4a23.529,23.529,0,0,0,1.3,8.307,32.2,32.2,0,0,0-14.513,9.33c-1.765-3.209-2.657-7.341-2.657-12.337l-.1-16.114c1.3-18.719,11.1-28.482,29.959-29.848H487.684a46.315,46.315,0,0,1,9.651,1.628l.426.127c7.745,2.343,13.053,6.713,16.3,13.382a31.29,31.29,0,0,1,1.534,3.734,44.515,44.515,0,0,1,2.045,10.972l-.059,6.965.059,9.559-.1.094v1.089l-.142,1.35.137.123c-.088,4.861-1.107,8.706-3.034,11.442l-.208.188-.252.513a24.763,24.763,0,0,1-4.531,6.5l-.012.012c-.289.3-.518.517-.754.736l-.113.11-.047.037-.106.1c-.244.228-.5.442-.747.654l-.038.023-.186.158c-.213.18-.434.352-.664.524-.483.373-.95.7-1.464,1.037-.255.167-.506.327-.767.478,0,0-.36.216-.448.271-.359.2-.724.4-1.091.586-.426.222-.84.425-1.273.62-.453.207-.895.4-1.345.577-.376.153-.761.292-1.145.423l-.145.054c-.207.083-.417.151-.631.213l-.1.03-.1.037c-.276.1-.56.187-.836.266-.5.151-.946.268-1.405.385-.505.128-1.025.257-1.557.367s-1.083.223-1.641.315c-.278.049-.526.093-.773.127-.672.112-1.265.193-1.866.256-.924.121-1.812.195-2.58.252H423.245v-15.86h59.132a30.655,30.655,0,0,0,3.794-.228h1.084l.243-.247a20.5,20.5,0,0,0,8.087-3.491c.217-.172.361-.289.5-.419,3.7-3.29,5.583-8.35,5.583-15.018v-6.1a24.927,24.927,0,0,0-.845-6.8c-1.492-5.5-5.9-12.127-18.411-12.285H408.537V601.841h73.84c12.442,0,19.294-6.891,19.294-19.4V566.112a23.534,23.534,0,0,0-1.3-8.307,32.2,32.2,0,0,0,14.513-9.33c1.765,3.209,2.656,7.341,2.656,12.337l.1,27.037c-1.3,18.721-11.1,28.486-29.96,29.852Z" transform="translate(-730.465 11544.087)" fill="url(#radial-gradient)"/>
  </g>
</svg>
